<svg width="18" height="14" viewBox="0 0 18 14" fill="none" xmlns="http://www.w3.org/2000/svg">
<path d="M17.25 10.3745H15.2653C15.1039 9.83279 14.7718 9.35767 14.3186 9.01984C13.8654 8.682 13.3153 8.49951 12.75 8.49951C12.1848 8.49951 11.6346 8.682 11.1814 9.01984C10.7282 9.35767 10.3962 9.83279 10.2347 10.3745H0.750023C0.551111 10.3745 0.360345 10.4535 0.219693 10.5942C0.0790405 10.7348 2.28885e-05 10.9256 2.28885e-05 11.1245C2.28885e-05 11.3234 0.0790405 11.5142 0.219693 11.6548C0.360345 11.7955 0.551111 11.8745 0.750023 11.8745H10.2347C10.3962 12.4162 10.7282 12.8913 11.1814 13.2292C11.6346 13.567 12.1848 13.7495 12.75 13.7495C13.3153 13.7495 13.8654 13.567 14.3186 13.2292C14.7718 12.8913 15.1039 12.4162 15.2653 11.8745H17.25C17.4489 11.8745 17.6397 11.7955 17.7804 11.6548C17.921 11.5142 18 11.3234 18 11.1245C18 10.9256 17.921 10.7348 17.7804 10.5942C17.6397 10.4535 17.4489 10.3745 17.25 10.3745ZM0.749975 3.62442L4.23475 3.62451C4.39619 4.16623 4.72821 4.64135 5.1814 4.97918C5.6346 5.31702 6.18476 5.49951 6.75002 5.49951C7.31528 5.49951 7.86544 5.31702 8.31864 4.97918C8.77184 4.64135 9.10386 4.16623 9.2653 3.62451L17.25 3.62442C17.4489 3.62442 17.6397 3.5454 17.7803 3.40475C17.921 3.2641 18 3.07333 18 2.87442C18 2.67551 17.921 2.48474 17.7803 2.34409C17.6397 2.20344 17.4489 2.12442 17.25 2.12442L9.2653 2.12451C9.10386 1.5828 8.77184 1.10767 8.31864 0.76984C7.86544 0.432005 7.31528 0.249512 6.75002 0.249512C6.18476 0.249512 5.6346 0.432005 5.1814 0.76984C4.72821 1.10767 4.39619 1.5828 4.23475 2.12451L0.750069 2.12442H0.750023C0.551111 2.12441 0.360343 2.20342 0.219686 2.34407C0.0790294 2.48472 6.09204e-06 2.67548 3.52219e-10 2.8744C-6.09134e-06 3.07331 0.0790058 3.26408 0.219654 3.40473C0.360302 3.54539 0.551065 3.62441 0.749977 3.62442H0.749975Z" fill="#272738"/>
</svg>
