<svg width="17" height="17" viewBox="0 0 17 17" fill="none" xmlns="http://www.w3.org/2000/svg">
<path d="M15.938 5.35597C12.7519 8.53284 9.57043 11.7149 6.39182 14.8993C6.22349 15.0682 6.02277 15.1342 5.80469 15.1775C4.44706 15.4494 3.08943 15.7201 1.73123 15.9897C1.66528 16.003 1.5976 16.0059 1.56174 16.0099C1.10013 16.0065 0.842143 15.653 0.934696 15.1868C1.04287 14.6396 1.15566 14.0935 1.26615 13.5469C1.43737 12.6983 1.61206 11.8509 1.77634 11.0011C1.81279 10.8114 1.89782 10.6633 2.03144 10.5297C5.20773 7.35569 8.38286 4.18171 11.5545 1.00368C11.6806 0.877002 11.7477 0.855599 11.8871 0.996164C13.2297 2.3509 14.5798 3.6987 15.9328 5.04361C16.0549 5.1645 16.0693 5.22524 15.938 5.35597Z" fill="#272738"/>
</svg>
