<svg width="18" height="18" viewBox="0 0 18 18" fill="none" xmlns="http://www.w3.org/2000/svg">
<path d="M0 7.00008V11.0001C0 11.5501 0.45 12.0001 1 12.0001H4L7.29 15.2901C7.92 15.9201 9 15.4701 9 14.5801V3.41008C9 2.52008 7.92 2.07008 7.29 2.70008L4 6.00008H1C0.45 6.00008 0 6.45008 0 7.00008ZM13.5 9.00008C13.5 7.23008 12.48 5.71008 11 4.97008V13.0201C12.48 12.2901 13.5 10.7701 13.5 9.00008ZM11 1.45008V1.65009C11 2.03009 11.25 2.36009 11.6 2.50009C14.18 3.53009 16 6.06008 16 9.00008C16 11.9401 14.18 14.4701 11.6 15.5001C11.24 15.6401 11 15.9701 11 16.3501V16.5501C11 17.1801 11.63 17.6201 12.21 17.4001C15.6 16.1101 18 12.8401 18 9.00008C18 5.16008 15.6 1.89008 12.21 0.600085C11.63 0.370085 11 0.820085 11 1.45008Z" fill="#272738"/>
</svg>
